<?xml version="1.0" encoding="UTF-8"?>
<svg version="1.1" xmlns="http://www.w3.org/2000/svg" width="1024" height="1024">
<path d="M0 0 C0.72622559 0.48823242 1.45245117 0.97646484 2.20068359 1.47949219 C12.30386954 8.32627936 21.85223497 15.73651238 31.23095703 23.53955078 C32.82530558 24.85577946 34.44075481 26.1463477 36.05859375 27.43359375 C41.95036171 32.12193677 47.24587413 37.12646218 52.5 42.5 C54.5202199 44.5202199 56.54597164 46.37704814 58.75 48.1875 C61.82039347 50.74495715 64.35177849 53.57720865 66.93359375 56.62109375 C68.96982536 58.96526209 71.07928946 61.22813042 73.2097168 63.48657227 C79.94874351 70.65499963 86.06650535 78.15792379 92 86 C92.53882813 86.70366699 93.07765625 87.40733398 93.6328125 88.13232422 C134.68342704 141.84724079 161.02585728 206.85726133 169 274 C169.08613556 274.7189444 169.17227112 275.43788879 169.26101685 276.17861938 C170.98596065 290.98151374 171.36195517 305.66904292 171.3125 320.5625 C171.31067719 321.70541504 171.30885437 322.84833008 171.30697632 324.02587891 C171.26092184 341.19954972 170.73912184 358.0142657 168 375 C167.82307617 376.14146484 167.64615234 377.28292969 167.46386719 378.45898438 C160.92581662 419.94568176 148.41571937 459.79535873 128.99755859 497.07861328 C127.96058625 499.0759144 126.94298687 501.08241284 125.92578125 503.08984375 C114.10873164 526.17375102 99.13998707 547.28955813 82.53369141 567.15771484 C81.11590949 568.86076839 79.71829407 570.57832144 78.32421875 572.30078125 C71.81139521 580.23560305 64.67022849 587.53987501 57.4375 594.8125 C56.95444397 595.30082306 56.47138794 595.78914612 55.97369385 596.29226685 C49.32848505 602.99346112 42.37106449 609.10715967 35 615 C33.89836949 615.93501246 32.80203715 616.87636422 31.71484375 617.828125 C7.62957314 638.83075197 -20.24645346 655.25033424 -49 669 C-49.7228418 669.34885254 -50.44568359 669.69770508 -51.19042969 670.05712891 C-90.26130231 688.76913608 -132.94410596 699.83317726 -176 704 C-176.91193115 704.0942627 -177.8238623 704.18852539 -178.76342773 704.28564453 C-189.7976574 705.29408635 -200.86648889 705.24368655 -211.9375 705.25 C-213.53495056 705.25101212 -213.53495056 705.25101212 -215.16467285 705.25204468 C-290.8086825 705.17614246 -365.98779457 682.88548593 -428.38549805 639.8137207 C-429.97164917 638.72063599 -429.97164917 638.72063599 -431.58984375 637.60546875 C-432.97997681 636.63323364 -432.97997681 636.63323364 -434.39819336 635.64135742 C-437.28305702 633.71153712 -437.28305702 633.71153712 -442 632 C-455.53 645.53 -469.06 659.06 -483 673 C-481.02 675.64 -479.04 678.28 -477 681 C-468.4726997 695.0263872 -465.60894891 710.93162782 -469.0625 727.0625 C-471.83782531 736.59069057 -475.9296302 745.14226725 -482.72296143 752.3993988 C-483.1943502 752.90381073 -483.66573897 753.40822266 -484.15141225 753.92791981 C-491.09420691 761.30077644 -498.27842546 768.44322713 -505.43261719 775.60961914 C-507.0652328 777.24851404 -508.69766369 778.88759297 -510.32992554 780.52684021 C-515.64870646 785.86647624 -520.97265264 791.20094687 -526.296875 796.53515625 C-528.139998 798.38233267 -529.98308913 800.22954089 -531.82614899 802.07678032 C-539.49537288 809.76283984 -547.16569463 817.44779953 -554.83970261 825.12908268 C-556.82087919 827.11216843 -558.80205013 829.09525983 -560.78320312 831.07836914 C-561.52160529 831.81749691 -561.52160529 831.81749691 -562.27492467 832.57155656 C-570.2506714 840.55560563 -578.21785425 848.54814372 -586.1815072 856.54425389 C-594.39296102 864.78889716 -602.6122032 873.02571021 -610.8385098 881.25553411 C-615.44305574 885.86242039 -620.04429765 890.4724916 -624.63735199 895.09083748 C-628.95915068 899.43605428 -633.29053984 903.77148417 -637.62916946 908.09989357 C-639.20991813 909.68015025 -640.78731602 911.26376786 -642.36088943 912.85116959 C-667.49957826 938.19818143 -695.95830483 954.52534749 -732.625 955.1875 C-764.31806373 954.81182791 -793.68428201 942.6193332 -816 920 C-838.79399968 895.03514321 -847.99980888 865.25537683 -847.13183594 831.85449219 C-845.89374446 805.04751884 -833.71285505 780.58913527 -815.71253967 761.15229797 C-814.93961015 760.31710411 -814.93961015 760.31710411 -814.15106589 759.46503764 C-807.22523535 752.03502339 -800.02833494 744.87214266 -792.84936523 737.68823242 C-791.25936435 736.09359122 -789.6695567 734.49875733 -788.07992554 732.90374756 C-783.79947382 728.61029747 -779.51579894 724.32007833 -775.23107791 720.03088927 C-772.54831779 717.3451815 -769.86613866 714.6588948 -767.18412971 711.9724369 C-759.73337222 704.50960035 -752.28177336 697.04760638 -744.82667446 689.58910656 C-744.35214246 689.11435499 -743.87761046 688.63960343 -743.3886987 688.15046545 C-742.91316943 687.6747179 -742.43764016 687.19897036 -741.94770092 686.70880622 C-740.98441949 685.74508136 -740.02113963 684.78135493 -739.05786133 683.81762695 C-738.58006255 683.33960675 -738.10226378 682.86158654 -737.60998625 682.36908088 C-729.85610007 674.61124053 -722.10900323 666.84665761 -714.36477315 659.07917925 C-706.38194118 651.07257902 -698.3933169 643.0718025 -690.39930111 635.07636529 C-685.92363377 630.59965296 -681.45039938 626.12057414 -676.98318291 621.63542747 C-672.78475795 617.42047442 -668.57916952 613.21280098 -664.36809921 609.01048279 C-662.83008889 607.47323995 -661.29460984 605.93345944 -659.76195335 604.39087868 C-645.35322059 589.89437586 -630.56255017 576.01419693 -608.89599609 575.61962891 C-591.06660488 575.65761521 -579.48793758 580.65147315 -565 591 C-551.47 577.47 -537.94 563.94 -524 550 C-525.79171066 545.52072334 -527.45494774 542.84606756 -530.3125 539.0625 C-569.74777423 485.14776713 -592.28336962 416.27289334 -597 350 C-597.05639648 349.22188965 -597.11279297 348.4437793 -597.17089844 347.64208984 C-601.71901997 282.04418312 -589.44847817 215.34316306 -561 156 C-560.66645508 155.30116699 -560.33291016 154.60233398 -559.98925781 153.88232422 C-538.25557938 108.65248498 -507.22995311 65.76853124 -469 33 C-468.03835938 32.14921875 -467.07671875 31.2984375 -466.0859375 30.421875 C-441.46285313 8.75948956 -413.65484376 -9.96255161 -384.01025391 -24.03759766 C-381.87481683 -25.05993103 -379.75587991 -26.1123427 -377.63671875 -27.16796875 C-284.59585565 -73.03332275 -173.9778277 -74.65947748 0 0 Z " fill="#8899A6" transform="translate(849,68)"/>
<path d="M0 0 C0.9842395 -0.00358521 1.968479 -0.00717041 2.98254395 -0.01086426 C68.98728099 -0.13999978 132.51942575 24.15769848 181.6875 68.3125 C182.50444336 69.03687256 182.50444336 69.03687256 183.33789062 69.77587891 C218.14876866 100.69479341 244.79777855 141.86301805 259.01025391 186.20556641 C259.59434426 188.0226896 260.20664924 189.83069933 260.82421875 191.63671875 C269.3612919 217.45039844 271.92144713 244.46102068 271.875 271.5 C271.87406342 272.21550018 271.87312683 272.93100037 271.87216187 273.66818237 C271.7039141 333.38287654 250.51788207 393.02307556 212.6875 439.3125 C212.22230957 439.89193359 211.75711914 440.47136719 211.27783203 441.06835938 C199.14676567 456.12283516 185.22094061 470.75907711 169.6875 482.3125 C168.57923667 483.16120975 167.47117767 484.01018635 166.36328125 484.859375 C124.12046362 516.86878573 70.26957949 539.70335636 16.6875 540.3125 C15.21458496 540.34102051 15.21458496 540.34102051 13.71191406 540.37011719 C-8.44420219 540.76657453 -30.62954911 540.2514983 -52.3125 535.3125 C-53.22966797 535.11140625 -54.14683594 534.9103125 -55.09179688 534.703125 C-90.99199659 526.7917421 -124.2706949 512.61190904 -154.3125 491.3125 C-155.01536133 490.81459961 -155.71822266 490.31669922 -156.44238281 489.80371094 C-165.49234531 483.33343035 -173.8128921 476.37002078 -181.8515625 468.68798828 C-184.08029495 466.58961284 -186.3874129 464.58200419 -188.6875 462.5625 C-192.16892275 459.43256704 -195.3443519 456.22293731 -198.35546875 452.640625 C-199.87547334 450.83239598 -201.41765743 449.06034411 -202.98828125 447.296875 C-234.38887802 411.80122519 -254.89028093 367.54777142 -264.5 321.3125 C-264.65509033 320.57862061 -264.81018066 319.84474121 -264.9699707 319.08862305 C-268.09640571 303.2042887 -268.68685916 287.3276565 -268.625 271.1875 C-268.62317719 270.19771149 -268.62135437 269.20792297 -268.61947632 268.18814087 C-268.57348102 253.33825258 -268.01862138 238.94670552 -265.3125 224.3125 C-265.1568457 223.3848584 -265.00119141 222.4572168 -264.84082031 221.50146484 C-258.23375342 182.39316772 -241.84264501 144.20343117 -218.3125 112.3125 C-217.90322266 111.75304687 -217.49394531 111.19359375 -217.07226562 110.6171875 C-203.37930526 92.00710932 -187.64740587 74.43663352 -169.3125 60.3125 C-168.04891473 59.30930428 -166.78593816 58.30534158 -165.5234375 57.30078125 C-130.79132911 29.91332321 -89.84011549 11.35524161 -46.3125 3.3125 C-45.56419922 3.16296875 -44.81589844 3.0134375 -44.04492188 2.859375 C-29.45024179 0.03538352 -14.81014956 0.02178916 0 0 Z " fill="#BADCF4" transform="translate(634.3125,118.6875)"/>
<path d="M0 0 C4.28133946 3.04221338 7.91351591 6.2037639 11.31871033 10.18952942 C14.89236095 14.30179157 18.64888694 18.18095549 22.50610352 22.02612305 C23.56119614 23.08384415 23.56119614 23.08384415 24.63760376 24.16293335 C26.93820406 26.46789611 29.24239674 28.76922738 31.546875 31.0703125 C33.15932058 32.68343258 34.77161777 34.29670101 36.3837738 35.91011047 C39.75186694 39.27967285 43.12174928 42.6474327 46.49291992 46.01391602 C50.80583752 50.32112762 55.1142375 54.63282575 59.42131138 58.94587994 C62.74554096 62.27372817 66.07215494 65.59918468 69.39948845 68.92392921 C70.98898579 70.51276138 72.57774589 72.10233146 74.16574287 73.69266319 C76.38615576 75.91562503 78.60976526 78.13534028 80.83422852 80.35424805 C81.48426346 81.00630722 82.1342984 81.65836639 82.80403137 82.33018494 C86.42599444 85.93546956 90.15509805 89.25559522 94.10546875 92.49609375 C104.72932822 104.61355705 106.93342584 121.01485834 106.10546875 136.49609375 C104.52541027 148.19432491 99.44099187 159.28683201 91.38250732 167.89549255 C90.67542417 168.65211045 90.67542417 168.65211045 89.9540565 169.42401356 C83.01126184 176.79687019 75.82704329 183.93932088 68.67285156 191.10571289 C67.04023595 192.74460779 65.40780506 194.38368672 63.77554321 196.02293396 C58.45676229 201.36256999 53.13281611 206.69704062 47.80859375 212.03125 C45.96547075 213.87842642 44.12237962 215.72563464 42.27931976 217.57287407 C34.61009587 225.25893359 26.93977412 232.94389328 19.26576614 240.62517643 C17.28458956 242.60826218 15.30341862 244.59135358 13.32226562 246.57446289 C12.58386346 247.31359066 12.58386346 247.31359066 11.83054408 248.06765031 C3.85479735 256.05169938 -4.1123855 264.04423747 -12.07603845 272.04034764 C-20.28749227 280.28499091 -28.50673445 288.52180396 -36.73304105 296.75162786 C-41.33758699 301.35851414 -45.9388289 305.96858535 -50.53188324 310.58693123 C-54.85368193 314.93214803 -59.18507109 319.26757792 -63.52370071 323.59598732 C-65.10444938 325.176244 -66.68184727 326.75986161 -68.25542068 328.34726334 C-93.39410951 353.69427518 -121.85283608 370.02144124 -158.51953125 370.68359375 C-190.21259498 370.30792166 -219.57881326 358.11542695 -241.89453125 335.49609375 C-264.68853093 310.53123696 -273.89434013 280.75147058 -273.02636719 247.35058594 C-271.78827571 220.54361259 -259.6073863 196.08522902 -241.60707092 176.64839172 C-241.09178457 176.09159581 -240.57649822 175.53479991 -240.04559714 174.96113139 C-233.1197666 167.53111714 -225.92286619 160.36823641 -218.74389648 153.18432617 C-217.1538956 151.58968497 -215.56408795 149.99485108 -213.97445679 148.39984131 C-209.69400507 144.10639122 -205.41033019 139.81617208 -201.12560916 135.52698302 C-198.44284904 132.84127525 -195.76066991 130.15498855 -193.07866096 127.46853065 C-185.62790347 120.0056941 -178.17630461 112.54370013 -170.72120571 105.08520031 C-170.00940771 104.37307296 -170.00940771 104.37307296 -169.28322995 103.6465592 C-168.80770068 103.17081165 -168.33217141 102.69506411 -167.84223217 102.20489997 C-166.87895074 101.24117511 -165.91567088 100.27744868 -164.95239258 99.3137207 C-164.4745938 98.8357005 -163.99679503 98.35768029 -163.5045175 97.86517463 C-155.75063132 90.10733428 -148.00353448 82.34275136 -140.2593044 74.575273 C-132.27647243 66.56867277 -124.28784815 58.56789625 -116.29383236 50.57245904 C-111.81816502 46.09574671 -107.34493063 41.61666789 -102.87771416 37.13152122 C-98.6792892 32.91656817 -94.47370077 28.70889473 -90.26263046 24.50657654 C-88.72462014 22.9693337 -87.18914109 21.42955319 -85.6564846 19.88697243 C-62.36279868 -3.54860579 -31.61169435 -20.67910185 0 0 Z " fill="#65747E" transform="translate(274.89453125,652.50390625)"/>
<path d="M0 0 C3.60490875 3.56953699 6.9959938 7.23537159 10.25 11.125 C10.89001953 11.88296875 10.89001953 11.88296875 11.54296875 12.65625 C13.68945013 15.20714092 15.81523312 17.76525716 17.87744141 20.38525391 C23.80541683 27.84620843 30.28177428 34.58936934 37.03759766 41.29833984 C38.87247269 43.12248747 40.69639332 44.95709873 42.51953125 46.79296875 C49.37328572 53.6546538 56.3696314 60.00143186 64 66 C65.17864558 66.970221 66.35380742 67.94471057 67.5234375 68.92578125 C71.98388305 72.65911307 76.44563048 76.3813464 81 80 C80.42567339 83.7399239 78.90672795 85.48141051 76.27807617 88.1418457 C75.49023239 88.94560135 74.70238861 89.74935699 73.89067078 90.57746887 C73.03342911 91.43491196 72.17618744 92.29235504 71.29296875 93.17578125 C69.97755852 94.50261177 69.97755852 94.50261177 68.63557434 95.85624695 C66.77896093 97.72366872 64.91936543 99.58747374 63.05444336 101.4465332 C60.6632102 103.8318568 58.29076851 106.23496016 55.9227705 108.64332294 C53.66174576 110.93636676 51.38260282 113.21125144 49.10546875 115.48828125 C48.25429977 116.35584549 47.4031308 117.22340973 46.52616882 118.11726379 C45.72886856 118.90525864 44.9315683 119.69325348 44.11010742 120.50512695 C43.41141037 121.20587845 42.71271332 121.90662994 41.99284363 122.62861633 C40 124 40 124 38.0929575 123.78067398 C35.61960294 122.85811174 34.37926433 121.74891049 32.51983643 119.88059998 C31.8496196 119.21450714 31.17940277 118.54841431 30.48887634 117.86213684 C29.40238548 116.75946724 29.40238548 116.75946724 28.29394531 115.63452148 C27.13727104 114.47850433 27.13727104 114.47850433 25.95722961 113.2991333 C23.40702084 110.74683244 20.86760582 108.18406526 18.328125 105.62109375 C16.56329668 103.85067101 14.7978054 102.0809089 13.03167725 100.31178284 C8.85779426 96.12761092 4.6906449 91.93681067 0.52669883 87.74275595 C-4.67979949 82.49943091 -9.89666392 77.26645743 -15.11328125 72.03320312 C-24.41720523 62.69709332 -33.71185565 53.35180714 -43 44 C-39.74966503 40.15261511 -36.4924495 36.36661347 -32.92236328 32.80883789 C-32.18204865 32.06859879 -31.44173401 31.32835968 -30.6789856 30.56568909 C-29.90062347 29.79248825 -29.12226135 29.01928741 -28.3203125 28.22265625 C-27.50754852 27.41130722 -26.69478455 26.59995819 -25.85739136 25.76402283 C-23.28228262 23.1944741 -20.7037038 20.62844032 -18.125 18.0625 C-16.36956054 16.31208071 -14.61434983 14.561432 -12.859375 12.81054688 C-8.57555918 8.53770698 -4.28889528 4.26774101 0 0 Z " fill="#99A9B3" transform="translate(326,617)"/>
</svg>
